M48
;Layer_Color=9474304
;FILE_FORMAT=2:4
METRIC,LZ
;TYPE=PLATED
T1F00S00C0.2000
T2F00S00C0.8890
T3F00S00C1.1000
T4F00S00C1.9000
%
T01
X029337Y013462
X054356
X127973Y045125
Y070145
Y098806
X127973Y12065
X098657
Y141986
X069342
Y12065
X098657Y098806
X16129Y072136
X163068Y141986
X189357
X212852Y141732
X309118Y06731
Y03937
T02
X245872Y01651
X271272
X296672
T03
X33806Y028575
Y053975
Y079375
Y104775
Y130175
T04
X02286Y056875
Y101875
M30
