M48
;Layer_Color=9474304
;FILE_FORMAT=2:4
METRIC,LZ
;TYPE=PLATED
T1F00S00C0.1999
T2F00S00C1.1000
T3F00S00C1.9000
%
T01
X03937Y014571
X068426Y013301
X097482
X126538
Y049115
X130302Y066294
X126538Y111615
Y138015
X097482
Y111615
X068426Y111869
Y138269
X03937Y137761
X091529Y044375
X097482Y049115
X155595
Y013301
X171386Y082897
X252158Y069181
X282638Y067657
X262318Y096105
X244983Y10414
X314896Y092295
Y139793
Y041241
Y013301
X282638
X250888
T02
X33806Y028575
Y053975
Y079375
Y104775
Y130175
T03
X02262Y056875
Y101875
M30
